#
#
#

mtllib coin_low.mtl


#
#  Mesh
#
g  Mesh


#
#  Mesh_Mesh_Mesh__Mesh_wire_088144225.002
#
usemtl  Mesh_Mesh_Mesh__Mesh_wire_088144225.002

v 0.459360 0.125620 0.011820
v 0.432480 0.214240 0.011820
v 0.468420 0.033460 0.011820
v 0.459360 -0.058700 0.011820
v 0.468420 0.033460 -0.129900
v 0.388800 -0.229040 0.011820
v 0.432480 -0.147320 -0.129900
v 0.432480 -0.147320 0.011820
v 0.258480 -0.359360 0.011820
v 0.330060 -0.300620 -0.129900
v 0.330060 -0.300620 0.011820
v 0.088200 -0.429920 0.011820
v 0.176820 -0.403040 -0.129900
v 0.176820 -0.403040 0.011820
v -0.096180 -0.429920 0.011820
v -0.004020 -0.438980 -0.129900
v -0.004020 -0.438980 0.011820
v -0.266460 -0.359360 0.011820
v -0.184800 -0.403040 -0.129900
v -0.184800 -0.403040 0.011820
v -0.396840 -0.229040 0.011820
v -0.338040 -0.300620 -0.129900
v -0.338040 -0.300620 0.011820
v -0.440460 -0.147320 -0.129900
v -0.440460 -0.147320 0.011820
v -0.467340 -0.058700 0.011820
v -0.476460 0.033460 -0.129900
v -0.476460 0.033460 0.011820
v -0.467340 0.125620 0.011820
v -0.440460 0.214240 -0.129900
v -0.440460 0.214240 0.011820
v -0.396840 0.295960 0.011820
v -0.266460 0.426280 0.011820
v -0.338040 0.367540 -0.129900
v -0.338040 0.367540 0.011820
v -0.096180 0.496840 0.011820
v -0.184800 0.469960 -0.129900
v -0.184800 0.469960 0.011820
v 0.088200 0.496840 0.011820
v -0.004020 0.505900 -0.129900
v -0.004020 0.505900 0.011820
v 0.258480 0.426280 0.011820
v 0.176820 0.469960 -0.129900
v 0.176820 0.469960 0.011820
v 0.388800 0.295960 0.011820
v 0.330060 0.367540 -0.129900
v 0.330060 0.367540 0.011820
v 0.432480 0.214240 -0.129900
vn 0.713910 0.141902 0.685709
vn 0.672499 0.278500 0.685699
vn 0.727892 0.000000 0.685692
vn 0.713910 -0.141902 0.685709
vn 0.727892 0.000000 -0.685692
vn 0.605203 -0.404402 0.685703
vn 0.672499 -0.278500 -0.685699
vn 0.672499 -0.278500 0.685699
vn 0.404510 -0.605115 0.685717
vn 0.514696 -0.514696 -0.685694
vn 0.514696 -0.514696 0.685694
vn 0.141902 -0.713910 0.685709
vn 0.278684 -0.672462 -0.685661
vn 0.278684 -0.672462 0.685661
vn -0.141902 -0.713910 0.685709
vn 0.000100 -0.727892 -0.685692
vn 0.000000 -0.727892 0.685692
vn -0.404510 -0.605115 0.685717
vn -0.278703 -0.672407 -0.685707
vn -0.278703 -0.672407 0.685707
vn -0.605308 -0.404405 0.685609
vn -0.514413 -0.514413 -0.686118
vn -0.514522 -0.514822 0.685730
vn -0.947407 0.319203 0.023000
vn -0.540098 -0.526598 0.656497
vn -0.830592 0.017900 0.556594
vn -0.713840 -0.142108 0.685739
vn -0.672793 -0.278297 -0.685493
vn -0.672325 -0.278610 0.685825
vn -0.753898 0.656599 0.022700
vn -0.700177 -0.279991 0.656778
vn -0.761088 0.334095 0.555991
vn -0.713830 0.142206 0.685729
vn -0.727989 -0.000000 -0.685589
vn -0.727989 0.000000 0.685589
vn -0.445092 0.895184 0.023200
vn -0.754096 0.009500 0.656696
vn -0.574975 0.599874 0.556376
vn -0.605308 0.404405 0.685609
vn -0.672490 0.278296 -0.685790
vn -0.672490 0.278296 0.685790
vn -0.404510 0.605115 0.685717
vn -0.514522 0.514822 -0.685730
vn -0.514778 0.514378 0.685871
vn -0.141902 0.713910 0.685709
vn -0.278684 0.672462 -0.685661
vn -0.278684 0.672462 0.685661
vn 0.141902 0.713910 0.685709
vn 0.000000 0.727845 -0.685742
vn 0.000000 0.727845 0.685742
vn 0.404510 0.605115 0.685717
vn 0.278703 0.672407 -0.685707
vn 0.278703 0.672407 0.685707
vn 0.605203 0.404402 0.685703
vn 0.514696 0.514696 -0.685694
vn 0.514696 0.514696 0.685694
vn 0.672499 0.278500 -0.685699
vn 0.753566 -0.656970 0.022999
vn 0.700313 0.279805 0.656712
vn 0.760758 -0.334382 0.556269
vn 0.445015 -0.895230 0.022901
vn 0.754097 -0.009300 0.656697
vn 0.575007 -0.599908 0.556307
vn 0.068499 -0.997388 0.022900
vn 0.693090 -0.297296 0.656690
vn 0.301598 -0.774394 0.556195
vn -0.318094 -0.947783 0.022900
vn 0.526715 -0.539715 0.656718
vn -0.017499 -0.830875 0.556183
vn 0.278592 -0.672480 -0.685680
vn -0.656969 -0.753564 0.023099
vn 0.279804 -0.700410 0.656609
vn -0.334300 -0.760699 0.556399
vn -0.895252 -0.444976 0.022799
vn -0.009300 -0.754097 0.656697
vn -0.600069 -0.574970 0.556171
vn 0.278703 -0.672407 -0.685707
vn -0.000000 -0.727892 -0.685692
vn -0.278592 -0.672480 -0.685680
vn -0.997344 -0.069103 0.023001
vn -0.297498 -0.692996 0.656697
vn -0.774204 -0.301702 0.556403
vn -0.514387 -0.514487 -0.686083
vn -0.672812 -0.278205 -0.685512
vn -0.672774 -0.278389 -0.685474
vn -0.672509 0.278204 -0.685809
vn -0.068101 0.997416 0.022900
vn -0.693285 0.297293 0.656485
vn -0.301402 0.774105 0.556703
vn 0.318094 0.947783 0.022900
vn -0.526715 0.539715 0.656718
vn 0.017499 0.830875 0.556183
vn -0.278592 0.672480 -0.685680
vn 0.656913 0.753615 0.023000
vn -0.279805 0.700313 0.656712
vn 0.334407 0.760716 0.556312
vn 0.895252 0.444976 0.022799
vn 0.009300 0.754097 0.656697
vn 0.600069 0.574970 0.556171
vn 0.000000 0.727892 -0.685692
vn 0.997388 0.068499 0.022900
vn 0.297498 0.692996 0.656697
vn 0.774394 0.301598 0.556195
vn 0.947680 -0.318393 0.023000
vn 0.539885 0.526586 0.656682
vn 0.830795 -0.017700 0.556297
vn 0.278592 0.672480 -0.685680
vn 0.672518 0.278407 -0.685718
vn 0.278684 0.672462 0.685661
vn 0.000000 0.727892 0.685692
vn -0.278703 0.672407 0.685707
vn 0.000100 0.727892 0.685692
vn -0.514805 0.514305 0.685906
vn -0.713840 0.142108 0.685739
vn -0.672306 -0.278702 0.685806
vn -0.514496 -0.514896 0.685694
vn -0.278684 -0.672462 0.685661
vn 0.000100 -0.727892 0.685692
vn 0.278703 -0.672407 0.685707
vn 0.727892 0.000100 0.685692
vn -0.000100 0.727892 0.685692
vn 0.727892 -0.000100 0.685692
vn -0.898636 0.058202 0.434817
vn -0.525001 -0.435400 -0.731301
vn -0.887010 -0.032500 0.460605
vn -0.807997 0.397498 0.434898
vn -0.652582 -0.201695 -0.730380
vn -0.831792 0.309797 0.460595
vn -0.594398 0.676298 0.435099
vn -0.680104 0.063000 -0.730404
vn -0.649695 0.604695 0.460696
vn 0.807997 -0.397498 0.434898
vn 0.652223 0.201607 -0.730726
vn 0.831754 -0.309783 0.460674
vn 0.594501 -0.676401 0.434800
vn 0.679780 -0.063298 -0.730679
vn 0.649986 -0.604387 0.460690
vn 0.290300 -0.852401 0.434900
vn 0.603901 -0.318401 -0.730701
vn 0.369125 -0.807254 0.460531
vn -0.057898 -0.898573 0.434987
vn 0.436180 -0.525376 -0.730566
vn 0.032199 -0.886978 0.460688
vn -0.397397 -0.807994 0.434997
vn 0.201799 -0.652197 -0.730696
vn -0.309808 -0.831723 0.460713
vn -0.676495 -0.594396 0.434797
vn -0.063302 -0.679727 -0.730729
vn -0.604387 -0.649986 0.460690
vn -0.852364 -0.290588 0.434781
vn -0.318604 -0.603907 -0.730608
vn -0.807383 -0.368892 0.460490
vn -0.290497 0.852490 0.434595
vn -0.603515 0.318408 -0.731018
vn -0.369599 0.806998 0.460599
vn 0.057898 0.898573 0.434987
vn -0.435995 0.525494 -0.730592
vn -0.032199 0.886978 0.460688
vn 0.397414 0.808029 0.434915
vn -0.201895 0.652183 -0.730681
vn 0.309783 0.831754 0.460674
vn 0.676430 0.594526 0.434719
vn 0.063298 0.679677 -0.730775
vn 0.604375 0.650073 0.460581
vn 0.852450 0.290117 0.434926
vn 0.318604 0.603907 -0.730608
vn 0.807383 0.368892 0.460490
vn 0.898568 -0.057998 0.434985
vn 0.525383 0.435986 -0.730677
vn 0.886981 0.032099 0.460690
vt 0.516000 0.311600
vt 0.501300 0.360000
vt 0.521000 0.261300
vt 0.048900 0.903100
vt 0.063800 0.975900
vt 0.020100 0.931700
vt 0.106700 0.845900
vt 0.121600 0.918700
vt 0.077800 0.874500
vt 0.164500 0.788700
vt 0.179400 0.861500
vt 0.135600 0.817300
vt 0.222200 0.731500
vt 0.237100 0.804300
vt 0.193300 0.760100
vt 0.280000 0.674200
vt 0.294900 0.747000
vt 0.251100 0.702800
vt 0.337700 0.617000
vt 0.352600 0.689800
vt 0.308800 0.645600
vt 0.395500 0.559800
vt 0.410400 0.632600
vt 0.366600 0.588400
vt 0.488000 0.823200
vt 0.424300 0.531200
vt 0.453200 0.502500
vt 0.468100 0.575300
vt 0.468400 0.724500
vt 0.482100 0.473900
vt 0.511000 0.445300
vt 0.525900 0.518100
vt 0.488000 0.625800
vt 0.539800 0.416700
vt 0.568700 0.388000
vt 0.583600 0.460800
vt 0.626400 0.330800
vt 0.641400 0.403600
vt 0.597600 0.359400
vt 0.684200 0.273500
vt 0.699100 0.346300
vt 0.655300 0.302100
vt 0.741900 0.216200
vt 0.756900 0.289000
vt 0.713000 0.244800
vt 0.799600 0.158900
vt 0.814600 0.231700
vt 0.770700 0.187600
vt 0.857300 0.101600
vt 0.872300 0.174500
vt 0.828500 0.130300
vt 0.915000 0.044400
vt 0.930000 0.117200
vt 0.886200 0.073000
vt 0.984300 0.724500
vt 0.943900 0.015700
vt 0.964600 0.823200
vt 0.908700 0.906900
vt 0.825000 0.962800
vt 0.726300 0.982400
vt 0.627600 0.962800
vt 0.543900 0.906900
vt 0.543900 0.542100
vt 0.627600 0.486200
vt 0.726300 0.466500
vt 0.825000 0.486200
vt 0.908700 0.542100
vt 0.964600 0.625800
vt 0.477500 0.404600
vt 0.445400 0.443700
vt 0.406300 0.475800
vt 0.361700 0.499600
vt 0.313400 0.514300
vt 0.263000 0.519200
vt 0.212700 0.514300
vt 0.164300 0.499600
vt 0.119700 0.475800
vt 0.080600 0.443700
vt 0.048600 0.404600
vt 0.024700 0.360000
vt 0.010000 0.311600
vt 0.005100 0.261300
vt 0.010000 0.211000
vt 0.024700 0.162600
vt 0.048600 0.118000
vt 0.080600 0.078900
vt 0.119700 0.046800
vt 0.164300 0.023000
vt 0.212700 0.008300
vt 0.263000 0.003400
vt 0.313400 0.008300
vt 0.361700 0.023000
vt 0.406300 0.046800
vt 0.445400 0.078900
vt 0.477500 0.118000
vt 0.501300 0.162600
vt 0.516000 0.211000
f 1/1/1 2/2/2 3/3/3
f 4/4/4 5/5/5 3/6/3
f 6/7/6 7/8/7 8/9/8
f 9/10/9 10/11/10 11/12/11
f 12/13/12 13/14/13 14/15/14
f 15/16/15 16/17/16 17/18/17
f 18/19/18 19/20/19 20/21/20
f 21/22/21 22/23/22 23/24/23
f 24/25/24 21/22/25 25/26/26
f 26/27/27 24/28/28 25/26/29
f 27/29/30 26/27/31 28/30/32
f 29/31/33 27/32/34 28/30/35
f 30/33/36 29/31/37 31/34/38
f 32/35/39 30/36/40 31/34/41
f 33/37/42 34/38/43 35/39/44
f 36/40/45 37/41/46 38/42/47
f 39/43/48 40/44/49 41/45/50
f 42/46/51 43/47/52 44/48/53
f 45/49/54 46/50/55 47/51/56
f 1/52/1 48/53/57 2/54/2
f 5/55/58 1/52/59 3/56/60
f 7/57/61 4/4/62 8/9/63
f 10/58/64 6/7/65 11/12/66
f 13/59/67 9/10/68 14/15/69
f 7/57/7 10/58/10 13/59/70
f 16/60/71 12/13/72 17/18/73
f 19/61/74 15/16/75 20/21/76
f 13/59/77 16/60/78 19/61/79
f 22/62/80 18/19/81 23/24/82
f 19/61/79 22/62/83 24/25/28
f 13/59/70 19/61/19 24/25/84
f 24/25/85 27/29/34 30/33/86
f 34/63/87 32/35/88 35/39/89
f 37/64/90 33/37/91 38/42/92
f 30/33/40 34/63/43 37/64/93
f 24/25/85 30/33/40 37/64/46
f 40/65/94 36/40/95 41/45/96
f 43/66/97 39/43/98 44/48/99
f 37/64/93 40/65/100 43/66/52
f 46/67/101 42/46/102 47/51/103
f 48/68/104 45/49/105 2/54/106
f 43/66/107 46/67/55 48/68/57
f 37/64/93 43/66/52 48/68/57
f 24/25/28 37/64/46 48/68/57
f 13/59/13 24/25/85 48/68/108
f 7/57/7 13/59/13 48/68/57
f 5/55/5 7/57/7 48/68/57
f 2/2/2 45/69/54 47/70/56
f 47/70/56 42/71/51 44/72/53
f 44/72/109 39/73/48 41/74/110
f 47/70/56 44/72/109 41/74/110
f 41/74/110 36/75/45 38/76/47
f 38/76/111 33/77/42 35/78/44
f 41/74/112 38/76/47 35/78/113
f 35/78/44 32/79/39 31/80/41
f 31/80/41 29/81/114 28/82/35
f 35/78/44 31/80/41 28/82/35
f 41/74/110 35/78/44 28/82/35
f 28/82/35 26/83/27 25/84/115
f 25/84/29 21/85/21 23/86/116
f 28/82/35 25/84/29 23/86/116
f 23/86/116 18/87/18 20/88/20
f 20/88/117 15/89/15 17/90/17
f 23/86/23 20/88/117 17/90/118
f 28/82/35 23/86/116 17/90/17
f 17/90/17 12/91/12 14/92/14
f 14/92/119 9/93/9 11/94/11
f 17/90/17 14/92/14 11/94/11
f 11/94/11 6/95/6 8/96/8
f 8/96/8 4/97/4 3/3/3
f 11/94/11 8/96/8 3/3/120
f 17/90/17 11/94/11 3/3/3
f 28/82/35 17/90/118 3/3/3
f 41/74/121 28/82/35 3/3/3
f 47/70/56 41/74/110 3/3/3
f 2/2/2 47/70/56 3/3/122
f 24/25/123 22/23/124 21/22/125
f 27/29/126 24/28/127 26/27/128
f 30/33/129 27/32/130 29/31/131
f 5/55/132 48/53/133 1/52/134
f 7/57/135 5/5/136 4/4/137
f 10/58/138 7/8/139 6/7/140
f 13/59/141 10/11/142 9/10/143
f 16/60/144 13/14/145 12/13/146
f 19/61/147 16/17/148 15/16/149
f 22/62/150 19/20/151 18/19/152
f 34/63/153 30/36/154 32/35/155
f 37/64/156 34/38/157 33/37/158
f 40/65/159 37/41/160 36/40/161
f 43/66/162 40/44/163 39/43/164
f 46/67/165 43/47/166 42/46/167
f 48/68/168 46/50/169 45/49/170
