#
#
#

mtllib coin_low.mtl


#
#  Mesh Mesh
#
g  Mesh Mesh


#
#  Mesh Mesh_ Mesh_wire_088144225.001
#
usemtl  Mesh Mesh_ Mesh_wire_088144225.001

v 0.459360 0.125620 0.011820
v 0.432480 0.214240 0.011820
v 0.468420 0.033460 0.011820
v 0.459360 -0.058700 0.011820
v 0.468420 0.033460 -0.129900
v 0.432480 -0.147320 0.011820
v 0.459360 -0.058700 -0.129900
v 0.388800 -0.229040 0.011820
v 0.432480 -0.147320 -0.129900
v 0.330060 -0.300620 0.011820
v 0.388800 -0.229040 -0.129900
v 0.258480 -0.359360 0.011820
v 0.330060 -0.300620 -0.129900
v 0.176820 -0.403040 0.011820
v 0.258480 -0.359360 -0.129900
v 0.088200 -0.429920 0.011820
v 0.176820 -0.403040 -0.129900
v -0.004020 -0.438980 0.011820
v 0.088200 -0.429920 -0.129900
v -0.096180 -0.429920 0.011820
v -0.004020 -0.438980 -0.129900
v -0.184800 -0.403040 0.011820
v -0.096180 -0.429920 -0.129900
v -0.266460 -0.359360 0.011820
v -0.184800 -0.403040 -0.129900
v -0.338040 -0.300620 0.011820
v -0.266460 -0.359360 -0.129900
v -0.396840 -0.229040 0.011820
v -0.338040 -0.300620 -0.129900
v -0.440460 -0.147320 0.011820
v -0.396840 -0.229040 -0.129900
v -0.467340 -0.058700 0.011820
v -0.440460 -0.147320 -0.129900
v -0.476460 0.033460 0.011820
v -0.467340 -0.058700 -0.129900
v -0.467340 0.125620 0.011820
v -0.476460 0.033460 -0.129900
v -0.440460 0.214240 0.011820
v -0.467340 0.125620 -0.129900
v -0.396840 0.295960 0.011820
v -0.440460 0.214240 -0.129900
v -0.338040 0.367540 0.011820
v -0.396840 0.295960 -0.129900
v -0.266460 0.426280 0.011820
v -0.338040 0.367540 -0.129900
v -0.184800 0.469960 0.011820
v -0.266460 0.426280 -0.129900
v -0.096180 0.496840 0.011820
v -0.184800 0.469960 -0.129900
v -0.004020 0.505900 0.011820
v -0.096180 0.496840 -0.129900
v 0.088200 0.496840 0.011820
v -0.004020 0.505900 -0.129900
v 0.176820 0.469960 0.011820
v 0.088200 0.496840 -0.129900
v 0.258480 0.426280 0.011820
v 0.176820 0.469960 -0.129900
v 0.330060 0.367540 0.011820
v 0.258480 0.426280 -0.129900
v 0.388800 0.295960 0.011820
v 0.330060 0.367540 -0.129900
v 0.388800 0.295960 -0.129900
v 0.432480 0.214240 -0.129900
v 0.459360 0.125620 -0.129900
vn 0.713910 0.141902 0.685709
vn 0.672499 0.278500 0.685699
vn 0.727892 0.000000 0.685692
vn 0.713910 -0.141902 0.685709
vn 0.727892 0.000000 -0.685692
vn 0.672499 -0.278500 0.685699
vn 0.713910 -0.141902 -0.685709
vn 0.605203 -0.404402 0.685703
vn 0.672499 -0.278500 -0.685699
vn 0.514696 -0.514696 0.685694
vn 0.605203 -0.404402 -0.685703
vn 0.404510 -0.605115 0.685717
vn 0.514696 -0.514696 -0.685694
vn 0.278684 -0.672462 0.685661
vn 0.404510 -0.605115 -0.685717
vn 0.141902 -0.713910 0.685709
vn 0.278684 -0.672462 -0.685661
vn 0.000000 -0.727845 0.685742
vn 0.141902 -0.713910 -0.685709
vn -0.141902 -0.713910 0.685709
vn -0.000000 -0.727845 -0.685742
vn -0.278684 -0.672462 0.685661
vn -0.141902 -0.713910 -0.685709
vn -0.404510 -0.605115 0.685717
vn -0.278684 -0.672462 -0.685661
vn -0.514522 -0.514822 0.685730
vn -0.404510 -0.605115 -0.685717
vn -0.605308 -0.404405 0.685609
vn -0.514387 -0.514487 -0.686083
vn -0.672325 -0.278610 0.685825
vn -0.605308 -0.404405 -0.685609
vn -0.713840 -0.142108 0.685739
vn -0.672793 -0.278297 -0.685493
vn -0.727989 0.000000 0.685589
vn -0.713840 -0.142108 -0.685739
vn -0.713840 0.142108 0.685739
vn -0.727989 -0.000000 -0.685589
vn -0.672490 0.278296 0.685790
vn -0.713840 0.142108 -0.685739
vn -0.605308 0.404405 0.685609
vn -0.672490 0.278296 -0.685790
vn -0.514778 0.514378 0.685871
vn -0.605308 0.404405 -0.685609
vn -0.404510 0.605115 0.685717
vn -0.514522 0.514822 -0.685730
vn -0.278684 0.672462 0.685661
vn -0.404510 0.605115 -0.685717
vn -0.141902 0.713910 0.685709
vn -0.278684 0.672462 -0.685661
vn 0.000000 0.727845 0.685742
vn -0.141902 0.713910 -0.685709
vn 0.141902 0.713910 0.685709
vn 0.000000 0.727845 -0.685742
vn 0.278684 0.672462 0.685661
vn 0.141902 0.713910 -0.685709
vn 0.404510 0.605115 0.685717
vn 0.278684 0.672462 -0.685661
vn 0.514696 0.514696 0.685694
vn 0.404510 0.605115 -0.685717
vn 0.605203 0.404402 0.685703
vn 0.514696 0.514696 -0.685694
vn 0.605203 0.404402 -0.685703
vn 0.672499 0.278500 -0.685699
vn 0.713910 0.141902 -0.685709
vt 0.516000 0.311600
vt 0.501300 0.360000
vt 0.521000 0.261300
vt 0.048900 0.903100
vt 0.063800 0.975900
vt 0.020100 0.931700
vt 0.077800 0.874500
vt 0.092700 0.947300
vt 0.106700 0.845900
vt 0.121600 0.918700
vt 0.135600 0.817300
vt 0.150500 0.890100
vt 0.164500 0.788700
vt 0.179400 0.861500
vt 0.193300 0.760100
vt 0.208200 0.832900
vt 0.222200 0.731500
vt 0.237100 0.804300
vt 0.251100 0.702800
vt 0.266000 0.775700
vt 0.280000 0.674200
vt 0.294900 0.747000
vt 0.308800 0.645600
vt 0.323800 0.718400
vt 0.337700 0.617000
vt 0.352600 0.689800
vt 0.366600 0.588400
vt 0.381500 0.661200
vt 0.395500 0.559800
vt 0.410400 0.632600
vt 0.424300 0.531200
vt 0.439300 0.604000
vt 0.453200 0.502500
vt 0.468100 0.575300
vt 0.482100 0.473900
vt 0.497000 0.546700
vt 0.511000 0.445300
vt 0.525900 0.518100
vt 0.539800 0.416700
vt 0.554800 0.489500
vt 0.568700 0.388000
vt 0.583600 0.460800
vt 0.597600 0.359400
vt 0.612500 0.432200
vt 0.626400 0.330800
vt 0.641400 0.403600
vt 0.655300 0.302100
vt 0.670300 0.374900
vt 0.684200 0.273500
vt 0.699100 0.346300
vt 0.713000 0.244800
vt 0.728000 0.317700
vt 0.741900 0.216200
vt 0.756900 0.289000
vt 0.770700 0.187600
vt 0.785700 0.260400
vt 0.799600 0.158900
vt 0.814600 0.231700
vt 0.828500 0.130300
vt 0.843400 0.203100
vt 0.857300 0.101600
vt 0.872300 0.174500
vt 0.886200 0.073000
vt 0.901200 0.145800
vt 0.915000 0.044400
vt 0.930000 0.117200
vt 0.943900 0.015700
vt 0.958900 0.088500
vt 0.979300 0.674200
vt 0.984300 0.724500
vt 0.964600 0.625800
vt 0.979300 0.774800
vt 0.964600 0.823200
vt 0.940800 0.867800
vt 0.908700 0.906900
vt 0.869600 0.939000
vt 0.825000 0.962800
vt 0.776600 0.977500
vt 0.726300 0.982400
vt 0.676000 0.977500
vt 0.627600 0.962800
vt 0.583000 0.939000
vt 0.543900 0.906900
vt 0.511800 0.867800
vt 0.488000 0.823200
vt 0.473300 0.774800
vt 0.468400 0.724500
vt 0.473300 0.674200
vt 0.488000 0.625800
vt 0.511800 0.581200
vt 0.543900 0.542100
vt 0.583000 0.510000
vt 0.627600 0.486200
vt 0.676000 0.471500
vt 0.726300 0.466500
vt 0.776600 0.471500
vt 0.825000 0.486200
vt 0.869600 0.510000
vt 0.908700 0.542100
vt 0.940800 0.581200
vt 0.477500 0.404600
vt 0.445400 0.443700
vt 0.406300 0.475800
vt 0.361700 0.499600
vt 0.313400 0.514300
vt 0.263000 0.519200
vt 0.212700 0.514300
vt 0.164300 0.499600
vt 0.119700 0.475800
vt 0.080600 0.443700
vt 0.048600 0.404600
vt 0.024700 0.360000
vt 0.010000 0.311600
vt 0.005100 0.261300
vt 0.010000 0.211000
vt 0.024700 0.162600
vt 0.048600 0.118000
vt 0.080600 0.078900
vt 0.119700 0.046800
vt 0.164300 0.023000
vt 0.212700 0.008300
vt 0.263000 0.003400
vt 0.313400 0.008300
vt 0.361700 0.023000
vt 0.406300 0.046800
vt 0.445400 0.078900
vt 0.477500 0.118000
vt 0.501300 0.162600
vt 0.516000 0.211000
vt 0.987700 0.059900
f 1/1/1 2/2/2 3/3/3
f 4/4/4 5/5/5 3/6/3
f 6/7/6 7/8/7 4/4/4
f 8/9/8 9/10/9 6/7/6
f 10/11/10 11/12/11 8/9/8
f 12/13/12 13/14/13 10/11/10
f 14/15/14 15/16/15 12/13/12
f 16/17/16 17/18/17 14/15/14
f 18/19/18 19/20/19 16/17/16
f 20/21/20 21/22/21 18/19/18
f 22/23/22 23/24/23 20/21/20
f 24/25/24 25/26/25 22/23/22
f 26/27/26 27/28/27 24/25/24
f 28/29/28 29/30/29 26/27/26
f 30/31/30 31/32/31 28/29/28
f 32/33/32 33/34/33 30/31/30
f 34/35/34 35/36/35 32/33/32
f 36/37/36 37/38/37 34/35/34
f 38/39/38 39/40/39 36/37/36
f 40/41/40 41/42/41 38/39/38
f 42/43/42 43/44/43 40/41/40
f 44/45/44 45/46/45 42/43/42
f 46/47/46 47/48/47 44/45/44
f 48/49/48 49/50/49 46/47/46
f 50/51/50 51/52/51 48/49/48
f 52/53/52 53/54/53 50/51/50
f 54/55/54 55/56/55 52/53/52
f 56/57/56 57/58/57 54/55/54
f 58/59/58 59/60/59 56/57/56
f 60/61/60 61/62/61 58/59/58
f 2/63/2 62/64/62 60/61/60
f 1/65/1 63/66/63 2/63/2
f 3/67/3 64/68/64 1/65/1
f 64/69/64 5/70/5 63/71/63
f 5/70/5 7/72/7 9/73/9
f 9/73/9 11/74/11 13/75/13
f 13/75/13 15/76/15 17/77/17
f 9/73/9 13/75/13 17/77/17
f 17/77/17 19/78/19 21/79/21
f 21/79/21 23/80/23 25/81/25
f 17/77/17 21/79/21 25/81/25
f 25/81/25 27/82/27 29/83/29
f 29/83/29 31/84/31 33/85/33
f 25/81/25 29/83/29 33/85/33
f 17/77/17 25/81/25 33/85/33
f 33/85/33 35/86/35 37/87/37
f 37/87/37 39/88/39 41/89/41
f 33/85/33 37/87/37 41/89/41
f 41/89/41 43/90/43 45/91/45
f 45/91/45 47/92/47 49/93/49
f 41/89/41 45/91/45 49/93/49
f 33/85/33 41/89/41 49/93/49
f 49/93/49 51/94/51 53/95/53
f 53/95/53 55/96/55 57/97/57
f 49/93/49 53/95/53 57/97/57
f 57/97/57 59/98/59 61/99/61
f 61/99/61 62/100/62 63/71/63
f 57/97/57 61/99/61 63/71/63
f 49/93/49 57/97/57 63/71/63
f 33/85/33 49/93/49 63/71/63
f 17/77/17 33/85/33 63/71/63
f 9/73/9 17/77/17 63/71/63
f 5/70/5 9/73/9 63/71/63
f 2/2/2 60/101/60 58/102/58
f 58/102/58 56/103/56 54/104/54
f 54/104/54 52/105/52 50/106/50
f 58/102/58 54/104/54 50/106/50
f 50/106/50 48/107/48 46/108/46
f 46/108/46 44/109/44 42/110/42
f 50/106/50 46/108/46 42/110/42
f 42/110/42 40/111/40 38/112/38
f 38/112/38 36/113/36 34/114/34
f 42/110/42 38/112/38 34/114/34
f 50/106/50 42/110/42 34/114/34
f 34/114/34 32/115/32 30/116/30
f 30/116/30 28/117/28 26/118/26
f 34/114/34 30/116/30 26/118/26
f 26/118/26 24/119/24 22/120/22
f 22/120/22 20/121/20 18/122/18
f 26/118/26 22/120/22 18/122/18
f 34/114/34 26/118/26 18/122/18
f 18/122/18 16/123/16 14/124/14
f 14/124/14 12/125/12 10/126/10
f 18/122/18 14/124/14 10/126/10
f 10/126/10 8/127/8 6/128/6
f 6/128/6 4/129/4 3/3/3
f 10/126/10 6/128/6 3/3/3
f 18/122/18 10/126/10 3/3/3
f 34/114/34 18/122/18 3/3/3
f 50/106/50 34/114/34 3/3/3
f 58/102/58 50/106/50 3/3/3
f 2/2/2 58/102/58 3/3/3
f 4/4/4 7/8/7 5/5/5
f 6/7/6 9/10/9 7/8/7
f 8/9/8 11/12/11 9/10/9
f 10/11/10 13/14/13 11/12/11
f 12/13/12 15/16/15 13/14/13
f 14/15/14 17/18/17 15/16/15
f 16/17/16 19/20/19 17/18/17
f 18/19/18 21/22/21 19/20/19
f 20/21/20 23/24/23 21/22/21
f 22/23/22 25/26/25 23/24/23
f 24/25/24 27/28/27 25/26/25
f 26/27/26 29/30/29 27/28/27
f 28/29/28 31/32/31 29/30/29
f 30/31/30 33/34/33 31/32/31
f 32/33/32 35/36/35 33/34/33
f 34/35/34 37/38/37 35/36/35
f 36/37/36 39/40/39 37/38/37
f 38/39/38 41/42/41 39/40/39
f 40/41/40 43/44/43 41/42/41
f 42/43/42 45/46/45 43/44/43
f 44/45/44 47/48/47 45/46/45
f 46/47/46 49/50/49 47/48/47
f 48/49/48 51/52/51 49/50/49
f 50/51/50 53/54/53 51/52/51
f 52/53/52 55/56/55 53/54/53
f 54/55/54 57/58/57 55/56/55
f 56/57/56 59/60/59 57/58/57
f 58/59/58 61/62/61 59/60/59
f 60/61/60 62/64/62 61/62/61
f 2/63/2 63/66/63 62/64/62
f 1/65/1 64/68/64 63/66/63
f 3/67/3 5/130/5 64/68/64
