#
#
#

mtllib heart.mtl


#
#  Mesh Mesh Mesh Mesh Mesh Mesh Mesh Mesh Mesh Mesh
#
g  Mesh Mesh Mesh Mesh Mesh Mesh Mesh Mesh Mesh Mesh


#
#  Mesh Mesh Mesh Mesh Mesh Mesh Mesh Mesh Mesh Mesh_ Mesh Mesh Mesh Mesh Mesh Mesh Mesh Mesh Mesh_ Mesh Mesh Mesh Mesh Mesh Mesh Mesh Mesh_ Mesh Mesh Mesh Mesh Mesh Mesh Mesh_ Mesh Mesh Mesh Mesh Mesh Mesh_ Mesh Mesh Mesh Mesh Mesh_ Mesh Mesh Mesh Mesh_ Mesh Mesh Mesh_ Mesh Mesh_ Mesh_Ruby
#
usemtl  Mesh Mesh Mesh Mesh Mesh Mesh Mesh Mesh Mesh Mesh_ Mesh Mesh Mesh Mesh Mesh Mesh Mesh Mesh Mesh_ Mesh Mesh Mesh Mesh Mesh Mesh Mesh Mesh_ Mesh Mesh Mesh Mesh Mesh Mesh Mesh_ Mesh Mesh Mesh Mesh Mesh Mesh_ Mesh Mesh Mesh Mesh Mesh_ Mesh Mesh Mesh Mesh_ Mesh Mesh Mesh_ Mesh Mesh_ Mesh_Ruby

v 0.043244 -1.038255 0.167138
v 0.041235 -1.030447 0.144165
v 0.900342 -0.142477 -0.104962
v 0.813470 -0.341823 0.114567
v 0.431303 0.748217 -0.289046
v 0.511059 0.971133 -0.076405
v 0.832979 0.887607 -0.116842
v 0.557325 -0.184918 -0.252233
v 0.705148 0.542238 -0.320144
v 0.992456 0.649177 -0.105386
v 1.126271 0.471072 0.087201
v 1.037192 0.737808 0.094979
v 0.021915 -0.495667 -0.161132
v 1.079520 0.296595 -0.118579
v 0.996763 -0.092322 0.105379
v 0.760182 0.227050 -0.320599
v 0.024001 0.819700 -0.052803
v 0.541195 1.038255 0.138389
v -0.000196 0.077743 -0.329398
v -0.535848 -0.184918 -0.156593
v -0.747498 0.227050 -0.188693
v 0.044828 0.903635 0.185240
v 0.005152 0.547907 -0.268261
v -0.693218 0.542238 -0.197802
v -0.418136 0.748217 -0.214730
v -1.037211 0.471072 0.276481
v -0.948132 0.737808 0.268674
v -0.938871 0.649177 0.063584
v -0.848083 -0.142477 0.048006
v -1.026904 0.296595 0.065711
v -0.783806 0.887607 0.024607
v -0.724410 -0.341823 0.249114
v -0.459755 0.971133 0.008529
v -0.906512 -0.092322 0.271894
v -0.452136 1.038255 0.225293
vn 0.617125 -0.706910 -0.345594
vn 0.082051 0.672380 -0.735645
vn 0.382146 -0.573107 -0.724923
vn 0.499282 0.294798 -0.814747
vn 0.077865 -0.003072 0.996959
vn 0.136168 -0.487452 -0.862467
vn 0.875643 -0.367068 -0.313865
vn 0.406189 -0.340717 -0.847893
vn -0.298616 0.922060 -0.246241
vn 0.225021 0.431077 -0.873807
vn -0.217640 -0.186462 -0.958053
vn 0.886355 0.233822 -0.399629
vn 0.103477 -0.039420 0.993851
vn -0.275960 0.913784 -0.298069
vn -0.318795 0.602281 -0.731866
vn 0.047970 -0.186462 -0.981291
vn 0.973910 -0.224862 -0.030603
vn 0.521852 0.847582 0.096311
vn 0.200539 0.926730 -0.317736
vn -0.127686 0.089341 -0.987783
vn 0.782348 -0.582825 -0.219652
vn 0.571280 0.100925 -0.814527
vn 0.042387 0.022486 0.998848
vn -0.935392 0.307261 -0.175023
vn -0.685091 -0.251447 -0.683685
vn 0.503558 0.156139 -0.849735
vn 0.000154 -0.281565 -0.959542
vn -0.253526 0.713636 -0.653030
vn -0.108895 0.129397 -0.985595
vn 0.555961 -0.251447 -0.792264
vn 0.096480 -0.009356 0.995291
vn -0.045780 0.089341 -0.994949
vn 0.890789 0.307261 -0.334793
vn 0.772971 0.498129 -0.392917
vn -0.829457 0.498129 -0.252722
vn 0.083447 -0.006214 0.996493
vn -0.667761 -0.706910 -0.233181
vn -0.208548 0.672380 -0.710221
vn -0.502221 -0.573107 -0.647551
vn -0.633176 0.294798 -0.715669
vn 0.096438 -0.003072 0.995335
vn -0.276402 -0.483981 -0.830280
vn -0.916842 -0.367068 -0.157042
vn -0.547253 -0.340717 -0.764478
vn 0.251320 0.922060 -0.294354
vn -0.373337 0.431077 -0.821458
vn 0.090860 -0.006214 0.995844
vn -0.942284 0.233822 -0.239643
vn 0.070675 -0.039420 0.996720
vn 0.220008 0.913784 -0.341460
vn 0.186864 0.602281 -0.776105
vn -0.063906 0.129397 -0.989532
vn -0.964428 -0.224862 0.138980
vn -0.497200 0.847582 0.185465
vn -0.252666 0.926730 -0.278086
vn 0.077816 -0.009356 0.996924
vn -0.808604 -0.582825 -0.080461
vn -0.704042 0.100925 -0.702951
vn 0.131705 0.022486 0.991034
vn -0.184386 0.003348 -0.982848
vn 0.010915 0.003348 -0.999935
vn -0.643463 0.156139 -0.749384
vn -0.165669 -0.283556 -0.944537
vn 0.136276 0.713636 -0.687134
vt 0.500000 0.000000
vt 0.500000 0.003760
vt 0.095923 0.431386
vt 0.144582 0.335386
vt 0.303687 0.860324
vt 0.275636 0.967676
vt 0.126346 0.927451
vt 0.274314 0.410948
vt 0.176825 0.761129
vt 0.053653 0.812629
vt 0.000000 0.726858
vt 0.041174 0.855311
vt 0.500000 0.394250
vt 0.013187 0.642833
vt 0.060136 0.455540
vt 0.151562 0.609343
vt 0.500000 0.894748
vt 0.270432 1.000000
vt 0.500000 0.532204
vt 0.725686 0.410948
vt 0.848438 0.609343
vt 0.500000 0.935170
vt 0.500000 0.626900
vt 0.823175 0.761129
vt 0.696313 0.860324
vt 1.000000 0.726858
vt 0.958826 0.855311
vt 0.946347 0.812629
vt 0.904077 0.431386
vt 0.986813 0.642833
vt 0.873654 0.927451
vt 0.855418 0.335386
vt 0.724364 0.967676
vt 0.939864 0.455540
vt 0.729568 1.000000
f 1/1/1 2/2/1 3/3/1 4/4/1
f 5/5/2 6/6/2 7/7/2
f 3/3/3 2/2/3 8/8/3
f 9/9/4 7/7/4 10/10/4
f 11/11/5 12/12/5 1/1/5
f 2/2/6 13/13/6 8/8/6
f 3/3/7 14/14/7 15/15/7
f 8/8/8 16/16/8 3/3/8
f 6/6/9 17/17/9 18/18/9
f 9/9/10 5/5/10 7/7/10
f 19/19/11 20/20/11 21/21/11
f 11/11/12 14/14/12 10/10/12
f 4/4/13 15/15/13 1/1/13
f 22/22/14 18/18/14 17/17/14
f 5/5/15 23/23/15 17/17/15
f 16/16/16 8/8/16 19/19/16
f 14/14/17 11/11/17 15/15/17
f 7/7/18 18/18/18 12/12/18
f 7/7/19 6/6/19 18/18/19
f 19/19/20 24/24/20 25/25/20
f 3/3/21 15/15/21 4/4/21
f 9/9/22 10/10/22 16/16/22
f 15/15/23 11/11/23 1/1/23
f 26/26/24 27/27/24 28/28/24
f 29/29/25 30/30/25 21/21/25
f 14/14/26 16/16/26 10/10/26
f 19/19/27 8/8/27 13/13/27
f 5/5/28 17/17/28 6/6/28
f 19/19/29 23/23/29 5/5/29
f 14/14/30 3/3/30 16/16/30
f 18/18/31 22/22/31 1/1/31
f 19/19/32 5/5/32 9/9/32
f 12/12/33 11/11/33 10/10/33
f 10/10/34 7/7/34 12/12/34
f 31/31/35 28/28/35 27/27/35
f 12/12/36 18/18/36 1/1/36
f 29/29/37 2/2/37 1/1/37 32/32/37
f 33/33/38 25/25/38 31/31/38
f 2/2/39 29/29/39 20/20/39
f 31/31/40 24/24/40 28/28/40
f 27/27/41 26/26/41 1/1/41
f 13/13/42 2/2/42 20/20/42
f 30/30/43 29/29/43 34/34/43
f 21/21/44 20/20/44 29/29/44
f 17/17/45 33/33/45 35/35/45
f 25/25/46 24/24/46 31/31/46
f 35/35/47 27/27/47 1/1/47
f 30/30/48 26/26/48 28/28/48
f 34/34/49 32/32/49 1/1/49
f 35/35/50 22/22/50 17/17/50
f 23/23/51 25/25/51 17/17/51
f 25/25/52 23/23/52 19/19/52
f 26/26/53 30/30/53 34/34/53
f 35/35/54 31/31/54 27/27/54
f 33/33/55 31/31/55 35/35/55
f 22/22/56 35/35/56 1/1/56
f 34/34/57 29/29/57 32/32/57
f 28/28/58 24/24/58 21/21/58
f 26/26/59 34/34/59 1/1/59
f 19/19/60 21/21/60 24/24/60
f 19/19/61 9/9/61 16/16/61
f 21/21/62 30/30/62 28/28/62
f 19/19/63 13/13/63 20/20/63
f 17/17/64 25/25/64 33/33/64
