# Blender 3.4.0
# www.blender.org
mtllib xobj.mtl
o Cylinder
v -0.005440 -0.809443 -0.939428
v 0.019167 3.227034 0.022685
v 0.637348 -0.809443 -0.705472
v 0.028745 3.227034 0.026171
v 0.979368 -1.003520 -0.113076
v 0.033842 3.227034 0.034998
v 0.860586 -1.003520 0.560572
v 0.032072 3.227034 0.045036
v 0.336580 -0.809443 1.000265
v 0.024263 3.227034 0.051588
v -0.353069 -0.872769 0.994068
v 0.014070 3.227034 0.051588
v -0.871465 -1.003520 0.560572
v 0.006262 3.227034 0.045036
v -0.990247 -1.003520 -0.113076
v 0.004492 3.227034 0.034998
v -0.653837 -1.066847 -0.711668
v 0.009589 3.227034 0.026171
v -0.002290 -0.453387 -0.816288
v 0.559453 -0.453387 -0.611830
v 0.858351 -0.453387 -0.094124
v 0.754545 -0.453387 0.494589
v 0.296607 -0.453387 0.878845
v -0.306797 -0.516713 0.872648
v -0.759126 -0.453387 0.494589
v -0.862932 -0.453387 -0.094124
v -0.569643 -0.516713 -0.618026
v 0.015024 2.516458 -0.139296
v 0.131209 2.516458 -0.097008
v 0.193029 2.516458 0.010068
v 0.171559 2.516458 0.131830
v 0.076845 2.516458 0.211305
v -0.052405 2.453131 0.205109
v -0.141511 2.516458 0.131830
v -0.162981 2.516458 0.010068
v -0.106769 2.453131 -0.103204
v 0.242392 1.745409 -0.230669
v 0.365764 1.745409 -0.016983
v 0.322917 1.745409 0.226012
v 0.133901 1.745409 0.384616
v -0.118452 1.682083 0.378420
v -0.301860 1.745409 0.226012
v -0.344706 1.745409 -0.016983
v -0.226943 1.682082 -0.236866
v 0.010529 1.745409 -0.315061
v 0.365054 0.894761 -0.378129
v 0.556331 0.894761 -0.046827
v 0.489901 0.894761 0.329917
v 0.196847 0.894761 0.575818
v -0.191317 0.831434 0.569622
v -0.478762 0.894761 0.329916
v -0.545192 0.894761 -0.046827
v -0.359524 0.831434 -0.384325
v 0.005569 0.894761 -0.508971
v 0.474390 0.136519 -0.509570
v 0.726197 0.136518 -0.073428
v 0.638746 0.136519 0.422534
v 0.252955 0.136519 0.746250
v -0.256267 0.073192 0.740054
v -0.636448 0.136519 0.422534
v -0.723899 0.136518 -0.073428
v -0.477702 0.073192 -0.515766
v 0.001149 0.136518 -0.681816
v 0.015674 2.466367 -0.253986
v 0.199847 2.466368 -0.186952
v 0.292234 2.403041 -0.023413
v 0.263809 2.466367 0.175798
v 0.113670 2.466367 0.301780
v -0.087932 2.403041 0.295584
v -0.232462 2.466367 0.175798
v -0.266496 2.466367 -0.017217
v -0.174109 2.403041 -0.193148
v 0.010725 1.692862 -0.451635
v 0.324917 1.692862 -0.337279
v 0.486486 1.629535 -0.053915
v 0.434034 1.692862 0.281558
v 0.177903 1.692862 0.496478
v -0.162062 1.629536 0.490282
v -0.412585 1.692862 0.281558
v -0.470645 1.692862 -0.047718
v -0.309076 1.629535 -0.343475
v 0.005286 0.842699 -0.671042
v 0.463775 0.842699 -0.504165
v 0.702124 0.779372 -0.087815
v 0.623007 0.842699 0.398883
v 0.249243 0.842699 0.712509
v -0.244281 0.779373 0.706312
v -0.612436 0.842699 0.398883
v -0.697161 0.842699 -0.081619
v -0.458813 0.779373 -0.510362
v 0.000399 0.078844 -0.831178
v 0.564756 0.078845 -0.625769
v 0.859436 0.015518 -0.111850
v 0.760756 0.078844 0.485799
v 0.300687 0.078845 0.871843
v -0.305499 0.015518 0.865646
v -0.759959 0.078845 0.485799
v -0.864248 0.078844 -0.105654
v -0.569569 0.015518 -0.631965
v 0.669916 -0.512940 -0.752068
v 1.022565 -0.576267 -0.137744
v 0.903752 -0.512940 0.574081
v 0.354870 -0.512940 1.034648
v -0.367254 -0.576267 1.028452
v -0.910528 -0.512940 0.574081
v -1.034949 -0.512941 -0.131548
v -0.682301 -0.576267 -0.758265
v -0.003388 -0.512941 -0.997131
v 0.747414 -1.054853 -0.845319
v 1.143143 -1.118179 -0.156378
v 1.009368 -1.054853 0.640300
v 0.394483 -1.054853 1.156250
v -0.413802 -1.118179 1.150053
v -1.023078 -1.054853 0.640299
v -1.162461 -1.054853 -0.150182
v -0.766733 -1.118179 -0.851516
v -0.006855 -1.054853 -1.119851
v -0.018886 -1.895607 -0.373037
v -0.018886 -0.720161 -0.373037
v 0.231064 -1.895607 -0.282063
v 0.231064 -0.720161 -0.282063
v 0.364060 -1.895607 -0.051708
v 0.364060 -0.720161 -0.051708
v 0.317871 -1.895607 0.210242
v 0.317871 -0.720161 0.210242
v 0.114110 -1.895607 0.381218
v 0.114110 -0.720161 0.381218
v -0.151881 -1.895607 0.381218
v -0.151881 -0.720161 0.381218
v -0.355642 -1.895607 0.210242
v -0.355642 -0.720161 0.210242
v -0.401831 -1.895607 -0.051708
v -0.401831 -0.720161 -0.051708
v -0.268836 -1.895607 -0.282063
v -0.268836 -0.720161 -0.282063
v -0.018886 -1.314390 -0.264436
v 0.161257 -1.314390 -0.198870
v 0.257109 -1.314390 -0.032850
v 0.223820 -1.314390 0.155942
v 0.076966 -1.314390 0.279167
v -0.114738 -1.314390 0.279166
v -0.261591 -1.314390 0.155942
v -0.294880 -1.314390 -0.032850
v -0.199028 -1.314390 -0.198870
vn 0.3238 0.3221 -0.8896
vn 0.8755 0.3013 -0.3779
vn 0.9542 0.2962 0.0420
vn 0.6109 0.3112 0.7280
vn -0.1220 0.2957 0.9475
vn -0.5271 0.3006 0.7949
vn -0.9327 0.3210 0.1645
vn -0.0000 1.0000 -0.0000
vn -0.3837 0.3165 -0.8675
vn -0.7883 0.3162 -0.5278
vn 0.1328 -0.9903 0.0405
vn -0.7670 0.4346 -0.4720
vn -0.3319 0.4339 -0.8376
vn -0.8898 0.4285 0.1569
vn -0.5534 0.4280 0.7146
vn -0.0402 0.4244 0.9046
vn 0.5844 0.4163 0.6965
vn 0.9163 0.3810 0.1236
vn 0.8138 0.3891 -0.4317
vn 0.3093 0.4266 -0.8499
vn -0.7919 0.3421 -0.5058
vn -0.3611 0.3418 -0.8676
vn -0.9279 0.3351 0.1636
vn -0.5507 0.3376 0.7634
vn -0.0796 0.3356 0.9386
vn 0.6078 0.3254 0.7244
vn 0.9474 0.3070 0.0902
vn 0.8536 0.3125 -0.4169
vn 0.3224 0.3342 -0.8857
vn 0.3209 0.3458 -0.8817
vn 0.8413 0.3246 -0.4322
vn 0.9410 0.3195 0.1114
vn 0.6047 0.3390 0.7207
vn -0.0564 0.3478 0.9359
vn -0.5641 0.3502 0.7477
vn -0.9230 0.3487 0.1627
vn -0.3488 0.3527 -0.8683
vn -0.7944 0.3537 -0.4938
vn -0.7974 0.3537 -0.4890
vn -0.3434 0.3526 -0.8705
vn -0.9228 0.3491 0.1627
vn -0.5718 0.3493 0.7423
vn -0.0458 0.3464 0.9370
vn 0.6048 0.3385 0.7208
vn 0.9411 0.3154 0.1220
vn 0.8380 0.3215 -0.4409
vn 0.3209 0.3461 -0.8816
vn 0.3114 0.4133 -0.8557
vn 0.8188 0.3793 -0.4309
vn 0.9204 0.3718 0.1206
vn 0.5881 0.4035 0.7009
vn -0.0439 0.4117 0.9103
vn -0.5547 0.4150 0.7211
vn -0.8960 0.4150 0.1580
vn -0.3358 0.4205 -0.8429
vn -0.7716 0.4211 -0.4767
vn 0.2362 -0.7935 0.5608
vn 0.5115 -0.7864 0.3464
vn 0.4511 -0.8889 -0.0795
vn 0.0601 -0.7179 -0.6935
vn 0.3855 -0.7318 -0.5620
vn -0.3049 -0.8804 -0.3633
vn -0.4465 -0.8913 -0.0787
vn -0.6421 -0.6711 0.3707
vn -0.1439 -0.9072 0.3954
vn -0.1295 -0.9255 0.3559
vn -0.5938 -0.7279 0.3428
vn -0.3976 -0.9149 -0.0701
vn -0.2691 -0.9081 -0.3207
vn 0.2240 -0.8452 -0.4852
vn 0.1400 -0.8433 -0.5188
vn 0.3987 -0.9144 -0.0703
vn 0.3447 -0.8759 0.3375
vn 0.2693 -0.8775 0.3969
vn 0.2447 -0.9196 0.3072
vn 0.2602 -0.9194 0.2949
vn 0.3356 -0.9401 -0.0592
vn 0.1411 -0.9022 -0.4076
vn 0.1536 -0.9024 -0.4026
vn -0.2263 -0.9360 -0.2697
vn -0.3368 -0.9397 -0.0594
vn -0.5353 -0.7861 0.3090
vn -0.1107 -0.9462 0.3041
vn -0.1302 -0.9247 0.3577
vn -0.5790 -0.7437 0.3343
vn -0.3965 -0.9154 -0.0699
vn -0.2660 -0.9104 -0.3170
vn 0.1156 -0.8853 -0.4505
vn 0.2005 -0.8866 -0.4169
vn 0.3927 -0.9170 -0.0692
vn 0.2407 -0.9059 0.3486
vn 0.3034 -0.9049 0.2984
vn 0.2648 -0.9285 0.2605
vn 0.2102 -0.9290 0.3047
vn 0.3381 -0.9392 -0.0596
vn 0.1720 -0.9172 -0.3595
vn 0.1001 -0.9163 -0.3877
vn -0.2282 -0.9348 -0.2720
vn -0.3421 -0.9377 -0.0603
vn -0.5192 -0.8003 0.2998
vn -0.1133 -0.9435 0.3114
vn -0.2817 -0.5673 0.7738
vn -0.8004 -0.5244 0.2903
vn -0.3002 -0.9524 -0.0529
vn -0.6561 -0.5090 -0.5572
vn 0.0559 -0.5261 -0.8486
vn 0.6202 -0.5243 -0.5835
vn 0.2956 -0.9539 -0.0521
vn 0.4603 -0.5276 0.7140
vn 0.2320 -0.9450 0.2304
vn 0.3371 -0.1693 -0.9261
vn 0.8535 -0.1693 -0.4928
vn 0.9706 -0.1693 0.1711
vn 0.6335 -0.1693 0.7550
vn -0.0000 -0.1693 0.9856
vn -0.6335 -0.1693 0.7550
vn -0.9706 -0.1693 0.1711
vn -0.3371 -0.1693 -0.9261
vn -0.8535 -0.1693 -0.4928
vn -0.0000 -1.0000 -0.0000
vn -0.8530 0.1729 -0.4925
vn -0.3369 0.1729 -0.9255
vn -0.9700 0.1729 0.1710
vn -0.6331 0.1729 0.7545
vn -0.0000 0.1729 0.9849
vn 0.6331 0.1729 0.7545
vn 0.9700 0.1729 0.1710
vn 0.8530 0.1729 -0.4925
vn 0.3369 0.1729 -0.9255
vn 0.8212 0.3176 -0.4742
vn 0.9352 0.3133 0.1649
vn 0.6108 0.3112 0.7280
vn -0.0000 0.3124 0.9499
vn -0.6098 0.3163 0.7267
vn -0.0000 1.0000 -0.0001
vn -0.3235 0.3247 -0.8888
vn -0.8192 0.3243 -0.4730
vn 0.1739 -0.8610 -0.4779
vn -0.3977 -0.9148 -0.0701
vn 0.0761 -0.8755 0.4771
vn 0.2833 -0.9577 -0.0500
vn 0.1903 -0.9594 0.2084
vn -0.1499 -0.9809 -0.1239
vn -0.7663 0.4264 -0.4805
vn -0.3405 0.4257 -0.8384
vn -0.5481 0.4163 0.7255
vn -0.0525 0.4112 0.9100
vn 0.8949 0.4174 0.1578
vn 0.7854 0.4214 -0.4534
vn -0.7627 0.3242 -0.5597
vn -0.4196 0.3238 -0.8480
vn -0.4665 0.3045 0.8304
vn -0.1918 0.3000 0.9345
vn 0.9308 0.3265 0.1641
vn 0.8175 0.3300 -0.4720
vn 0.8138 0.3419 -0.4699
vn 0.9264 0.3392 0.1634
vn -0.1053 0.3276 0.9389
vn -0.5323 0.3322 0.7786
vn -0.3749 0.3420 -0.8617
vn -0.7834 0.3430 -0.5183
vn -0.7930 0.3462 -0.5012
vn -0.3563 0.3451 -0.8683
vn -0.5580 0.3372 0.7582
vn -0.0692 0.3324 0.9406
vn 0.9266 0.3388 0.1634
vn 0.8139 0.3418 -0.4699
vn 0.7905 0.4084 -0.4564
vn 0.9006 0.4045 0.1588
vn -0.0605 0.3972 0.9158
vn -0.5465 0.4021 0.7346
vn -0.3467 0.4116 -0.8428
vn -0.7697 0.4123 -0.4874
vn 0.1401 -0.9059 0.3996
vn 0.3722 -0.9010 0.2231
vn 0.0137 -0.8771 -0.4802
vn 0.2883 -0.8812 -0.3747
vn -0.7320 -0.6725 0.1093
vn -0.5794 -0.8150 0.0117
vn -0.4691 -0.8803 0.0708
vn -0.6875 -0.7256 0.0295
vn 0.1771 -0.9156 -0.3610
vn 0.0957 -0.9148 -0.3924
vn 0.2690 -0.9298 0.2510
vn 0.1971 -0.9311 0.3070
vn 0.1878 -0.9512 0.2449
vn 0.2088 -0.9509 0.2283
vn 0.1040 -0.9422 -0.3186
vn 0.1248 -0.9423 -0.3105
vn -0.6204 -0.7843 0.0012
vn -0.3836 -0.9201 0.0796
vn -0.4135 -0.9017 0.1260
vn -0.6772 -0.7350 -0.0339
vn 0.0999 -0.9185 -0.3826
vn 0.1693 -0.9191 -0.3557
vn 0.2077 -0.9316 0.2982
vn 0.2592 -0.9310 0.2571
vn 0.2248 -0.9487 0.2223
vn 0.1796 -0.9491 0.2588
vn 0.1444 -0.9417 -0.3039
vn 0.0853 -0.9413 -0.3267
vn -0.6039 -0.7965 -0.0299
vn -0.3591 -0.9267 0.1106
vn -0.5190 -0.8253 0.2223
vn -0.5790 -0.8147 -0.0325
vn -0.2001 -0.9503 -0.2385
vn 0.0491 -0.5444 -0.8374
vn 0.1576 -0.9392 -0.3050
vn 0.1593 -0.9614 0.2243
vn 0.1940 -0.9612 0.1962
s 0
usemtl Leaves
f 2//1 65//1 64//1
f 65//2 6//2 66//2
f 6//3 67//3 66//3
f 8//4 68//4 67//4
f 68//5 12//5 69//5
f 12//6 70//6 69//6
f 70//7 16//7 71//7
f 2//8 12//8 8//8
f 18//9 64//9 72//9
f 71//10 18//10 72//10
f 3//11 11//11 15//11
f 115//12 27//12 116//12
f 27//13 117//13 116//13
f 114//14 26//14 115//14
f 24//15 114//15 113//15
f 112//16 24//16 113//16
f 111//17 23//17 112//17
f 21//18 111//18 110//18
f 109//19 21//19 110//19
f 19//20 109//20 117//20
f 80//21 36//21 81//21
f 36//22 73//22 81//22
f 79//23 35//23 80//23
f 33//24 79//24 78//24
f 77//25 33//25 78//25
f 76//26 32//26 77//26
f 30//27 76//27 75//27
f 74//28 30//28 75//28
f 28//29 74//29 73//29
f 45//30 83//30 82//30
f 83//31 38//31 84//31
f 38//32 85//32 84//32
f 85//33 40//33 86//33
f 86//34 41//34 87//34
f 41//35 88//35 87//35
f 88//36 43//36 89//36
f 44//37 82//37 90//37
f 89//38 44//38 90//38
f 98//39 53//39 99//39
f 53//40 91//40 99//40
f 97//41 52//41 98//41
f 50//42 97//42 96//42
f 95//43 50//43 96//43
f 94//44 49//44 95//44
f 47//45 94//45 93//45
f 92//46 47//46 93//46
f 54//47 92//47 91//47
f 63//48 100//48 108//48
f 100//49 56//49 101//49
f 56//50 102//50 101//50
f 102//51 58//51 103//51
f 103//52 59//52 104//52
f 59//53 105//53 104//53
f 105//54 61//54 106//54
f 62//55 108//55 107//55
f 106//56 62//56 107//56
f 71//57 36//57 35//57
f 36//58 64//58 28//58
f 70//59 35//59 34//59
f 33//60 70//60 34//60
f 68//61 33//61 32//61
f 31//62 68//62 32//62
f 30//63 67//63 31//63
f 29//64 66//64 30//64
f 28//65 65//65 29//65
f 45//66 74//66 37//66
f 37//67 75//67 38//67
f 38//68 76//68 39//68
f 39//69 77//69 40//69
f 77//70 41//70 40//70
f 41//71 79//71 42//71
f 79//72 43//72 42//72
f 44//73 73//73 45//73
f 80//74 44//74 43//74
f 89//75 53//75 52//75
f 53//76 82//76 54//76
f 88//77 52//77 51//77
f 50//78 88//78 51//78
f 86//79 50//79 49//79
f 48//80 86//80 49//80
f 47//81 85//81 48//81
f 46//82 84//82 47//82
f 54//83 83//83 46//83
f 63//84 92//84 55//84
f 55//85 93//85 56//85
f 56//86 94//86 57//86
f 57//87 95//87 58//87
f 95//88 59//88 58//88
f 59//89 97//89 60//89
f 97//90 61//90 60//90
f 62//91 91//91 63//91
f 98//92 62//92 61//92
f 106//93 27//93 26//93
f 27//94 108//94 19//94
f 105//95 26//95 25//95
f 24//96 105//96 25//96
f 103//97 24//97 23//97
f 22//98 103//98 23//98
f 21//99 102//99 22//99
f 20//100 101//100 21//100
f 19//101 100//101 20//101
f 1//102 109//102 3//102
f 109//103 5//103 3//103
f 5//104 111//104 7//104
f 7//105 112//105 9//105
f 112//106 11//106 9//106
f 113//107 13//107 11//107
f 114//108 15//108 13//108
f 17//109 117//109 1//109
f 115//110 17//110 15//110
f 2//1 4//1 65//1
f 65//130 4//130 6//130
f 6//131 8//131 67//131
f 8//132 10//132 68//132
f 68//133 10//133 12//133
f 12//134 14//134 70//134
f 70//7 14//7 16//7
f 6//135 4//135 2//135
f 2//135 18//135 16//135
f 16//135 14//135 12//135
f 12//8 10//8 8//8
f 8//8 6//8 2//8
f 2//8 16//8 12//8
f 18//136 2//136 64//136
f 71//137 16//137 18//137
f 17//138 1//138 3//138
f 3//139 5//139 7//139
f 7//140 9//140 11//140
f 11//141 13//141 15//141
f 15//142 17//142 3//142
f 3//143 7//143 11//143
f 115//144 26//144 27//144
f 27//145 19//145 117//145
f 114//14 25//14 26//14
f 24//146 25//146 114//146
f 112//147 23//147 24//147
f 111//17 22//17 23//17
f 21//148 22//148 111//148
f 109//149 20//149 21//149
f 19//20 20//20 109//20
f 80//150 35//150 36//150
f 36//151 28//151 73//151
f 79//23 34//23 35//23
f 33//152 34//152 79//152
f 77//153 32//153 33//153
f 76//26 31//26 32//26
f 30//154 31//154 76//154
f 74//155 29//155 30//155
f 28//29 29//29 74//29
f 45//30 37//30 83//30
f 83//156 37//156 38//156
f 38//157 39//157 85//157
f 85//33 39//33 40//33
f 86//158 40//158 41//158
f 41//159 42//159 88//159
f 88//36 42//36 43//36
f 44//160 45//160 82//160
f 89//161 43//161 44//161
f 98//162 52//162 53//162
f 53//163 54//163 91//163
f 97//41 51//41 52//41
f 50//164 51//164 97//164
f 95//165 49//165 50//165
f 94//44 48//44 49//44
f 47//166 48//166 94//166
f 92//167 46//167 47//167
f 54//47 46//47 92//47
f 63//48 55//48 100//48
f 100//168 55//168 56//168
f 56//169 57//169 102//169
f 102//51 57//51 58//51
f 103//170 58//170 59//170
f 59//171 60//171 105//171
f 105//54 60//54 61//54
f 62//172 63//172 108//172
f 106//173 61//173 62//173
f 71//174 72//174 36//174
f 36//175 72//175 64//175
f 70//59 71//59 35//59
f 33//176 69//176 70//176
f 68//177 69//177 33//177
f 31//62 67//62 68//62
f 30//178 66//178 67//178
f 29//179 65//179 66//179
f 28//65 64//65 65//65
f 45//66 73//66 74//66
f 37//180 74//180 75//180
f 38//181 75//181 76//181
f 39//69 76//69 77//69
f 77//182 78//182 41//182
f 41//183 78//183 79//183
f 79//72 80//72 43//72
f 44//184 81//184 73//184
f 80//185 81//185 44//185
f 89//186 90//186 53//186
f 53//187 90//187 82//187
f 88//77 89//77 52//77
f 50//188 87//188 88//188
f 86//189 87//189 50//189
f 48//80 85//80 86//80
f 47//190 84//190 85//190
f 46//191 83//191 84//191
f 54//83 82//83 83//83
f 63//84 91//84 92//84
f 55//192 92//192 93//192
f 56//193 93//193 94//193
f 57//87 94//87 95//87
f 95//194 96//194 59//194
f 59//195 96//195 97//195
f 97//90 98//90 61//90
f 62//196 99//196 91//196
f 98//197 99//197 62//197
f 106//198 107//198 27//198
f 27//199 107//199 108//199
f 105//95 106//95 26//95
f 24//200 104//200 105//200
f 103//201 104//201 24//201
f 22//98 102//98 103//98
f 21//202 101//202 102//202
f 20//203 100//203 101//203
f 19//101 108//101 100//101
f 1//102 117//102 109//102
f 109//204 110//204 5//204
f 5//205 110//205 111//205
f 7//206 111//206 112//206
f 112//207 113//207 11//207
f 113//208 114//208 13//208
f 114//108 115//108 15//108
f 17//209 116//209 117//209
f 115//210 116//210 17//210
usemtl Bark
f 119//111 137//111 136//111
f 121//112 138//112 137//112
f 123//113 139//113 138//113
f 139//114 127//114 140//114
f 140//115 129//115 141//115
f 141//116 131//116 142//116
f 131//117 143//117 142//117
f 119//8 129//8 125//8
f 144//118 119//118 136//118
f 143//119 135//119 144//119
f 120//120 128//120 132//120
f 143//121 134//121 132//121
f 144//122 118//122 134//122
f 142//123 132//123 130//123
f 141//124 130//124 128//124
f 140//125 128//125 126//125
f 139//126 126//126 124//126
f 138//127 124//127 122//127
f 120//128 138//128 122//128
f 136//129 120//129 118//129
f 119//111 121//111 137//111
f 121//112 123//112 138//112
f 123//113 125//113 139//113
f 139//114 125//114 127//114
f 140//115 127//115 129//115
f 141//116 129//116 131//116
f 131//117 133//117 143//117
f 123//8 121//8 119//8
f 119//8 135//8 133//8
f 133//8 131//8 129//8
f 129//8 127//8 125//8
f 125//8 123//8 119//8
f 119//8 133//8 129//8
f 144//118 135//118 119//118
f 143//119 133//119 135//119
f 134//120 118//120 120//120
f 120//120 122//120 124//120
f 124//120 126//120 128//120
f 128//120 130//120 132//120
f 132//120 134//120 120//120
f 120//120 124//120 128//120
f 143//121 144//121 134//121
f 144//122 136//122 118//122
f 142//123 143//123 132//123
f 141//124 142//124 130//124
f 140//125 141//125 128//125
f 139//126 140//126 126//126
f 138//127 139//127 124//127
f 120//128 137//128 138//128
f 136//129 137//129 120//129
