#
#
#

mtllib vax.mtl


#
#  Mesh Mesh
#
g  Mesh Mesh

v -0.236792 -0.116537 -0.070359
v -0.191570 -0.199248 -0.184200
v -0.191570 -0.250367 -0.026876
v -0.236792 0.100000 -0.227682
v -0.191569 0.182710 -0.341524
v -0.191569 0.017290 -0.341524
v -0.236792 -0.033828 0.184199
v -0.191570 -0.167657 0.227682
v -0.191569 -0.033828 0.324916
v -0.236792 0.233828 0.184199
v -0.191569 0.233828 0.324916
v -0.191570 0.367657 0.227682
v -0.236792 0.316537 -0.070359
v -0.191570 0.450367 -0.026876
v -0.191570 0.399248 -0.184200
v -0.073173 0.182710 -0.482242
v -0.000000 0.100000 -0.509117
v -0.073173 0.017290 -0.482242
v -0.073173 -0.333079 -0.227685
v -0.000000 -0.384199 -0.157326
v -0.073173 -0.384198 -0.070359
v -0.073173 -0.250369 0.341526
v 0.000000 -0.199250 0.411885
v -0.073173 -0.116539 0.438759
v -0.073173 0.316539 0.438759
v 0.000000 0.399250 0.411885
v -0.073173 0.450369 0.341526
v -0.073173 0.584198 -0.070359
v -0.000000 0.584199 -0.157326
v -0.073173 0.533079 -0.227685
v -0.000000 -0.199250 -0.411885
v 0.073173 -0.116539 -0.438759
v 0.073173 -0.250369 -0.341526
v 0.000000 -0.384199 0.157326
v 0.073173 -0.384198 0.070359
v 0.073173 -0.333079 0.227685
v 0.000000 0.100000 0.509117
v 0.073173 0.017290 0.482242
v 0.073173 0.182710 0.482242
v 0.000000 0.584199 0.157326
v 0.073173 0.533079 0.227685
v 0.073173 0.584198 0.070359
v -0.000000 0.399250 -0.411885
v 0.073173 0.450369 -0.341526
v 0.073173 0.316539 -0.438759
v 0.191569 -0.033828 -0.324916
v 0.236792 -0.033828 -0.184199
v 0.191570 -0.167657 -0.227682
v 0.191570 -0.250367 0.026876
v 0.236792 -0.116537 0.070359
v 0.191570 -0.199248 0.184200
v 0.191569 0.017290 0.341524
v 0.236792 0.100000 0.227682
v 0.191569 0.182710 0.341524
v 0.191570 0.399248 0.184200
v 0.236792 0.316537 0.070359
v 0.191570 0.450367 0.026876
v 0.191570 0.367657 -0.227682
v 0.236792 0.233828 -0.184199
v 0.191569 0.233828 -0.324916
v 0.178598 0.457422 -0.116131
v 0.133886 0.457422 -0.255258
v 0.254664 0.100000 -0.139124
v 0.254665 0.232314 -0.042991
v 0.133886 0.232315 -0.418808
v 0.178597 0.100000 -0.375817
v 0.178598 0.320897 0.304042
v 0.133886 0.453213 0.261051
v 0.254665 0.181774 0.112553
v 0.133887 0.539197 -0.003577
v 0.178598 -0.120897 0.304042
v 0.133886 -0.039122 0.416596
v 0.254665 0.018226 0.112553
v 0.133886 0.239122 0.416596
v 0.178598 -0.257422 -0.116131
v 0.133887 -0.339197 -0.003577
v 0.254665 -0.032314 -0.042991
v 0.133886 -0.253213 0.261051
v 0.133886 -0.032315 -0.418808
v 0.133886 -0.257422 -0.255258
v -0.061541 0.320897 -0.443168
v -0.061541 0.453215 -0.347035
v 0.061540 0.181774 -0.488372
v 0.061541 0.539199 -0.228688
v -0.061541 0.589739 0.073140
v -0.061541 0.539199 0.228688
v 0.061541 0.589739 -0.073140
v 0.061541 0.453215 0.347035
v -0.061540 0.181774 0.488372
v -0.061540 0.018226 0.488372
v 0.061541 0.320897 0.443168
v 0.061541 -0.120897 0.443168
v -0.061541 -0.339199 0.228688
v -0.061541 -0.389739 0.073140
v 0.061541 -0.253215 0.347035
v 0.061541 -0.389739 -0.073140
v -0.061541 -0.253215 -0.347035
v -0.061541 -0.120897 -0.443168
v 0.061541 -0.339199 -0.228688
v 0.061540 0.018226 -0.488372
v -0.133887 0.539197 0.003577
v -0.133886 0.453213 -0.261051
v -0.133886 0.232315 0.418808
v -0.133886 0.457422 0.255258
v -0.133886 -0.257422 0.255258
v -0.133886 -0.032315 0.418808
v -0.133886 -0.253213 -0.261051
v -0.133887 -0.339197 0.003577
v -0.133886 0.239122 -0.416596
v -0.133886 -0.039122 -0.416596
v -0.254665 0.181774 -0.112553
v -0.254665 0.232314 0.042991
v -0.178598 0.320897 -0.304042
v -0.178598 0.457422 0.116131
v -0.254664 0.100000 0.139124
v -0.178597 0.100000 0.375817
v -0.254665 -0.032314 0.042991
v -0.178598 -0.257422 0.116131
v -0.254665 0.018226 -0.112553
v -0.178598 -0.120897 -0.304042
v -0.225203 -0.057323 -0.216539
v -0.139184 -0.311881 -0.133831
v -0.118396 -0.167653 -0.368397
v -0.225203 -0.154556 0.082709
v -0.118396 -0.333075 0.140712
v -0.264741 0.100000 0.000000
v -0.139184 0.100000 -0.433079
v -0.225203 0.257323 -0.216539
v -0.118396 0.367653 -0.368397
v -0.139184 -0.154557 0.350369
v -0.225202 0.100000 0.267658
v -0.118396 0.100000 0.455367
v -0.139184 0.354557 0.350369
v -0.225203 0.354556 0.082709
v -0.118396 0.533075 0.140712
v -0.139184 0.511881 -0.133831
v -0.000000 -0.057324 -0.484200
v -0.000000 0.257324 -0.484200
v 0.118396 0.100000 -0.455367
v 0.000000 -0.409117 0.000000
v -0.000000 -0.311884 -0.299252
v 0.118396 -0.333075 -0.140712
v 0.000000 -0.057324 0.484200
v 0.000000 -0.311884 0.299252
v 0.118396 -0.167653 0.368397
v 0.000000 0.511884 0.299252
v 0.000000 0.257324 0.484200
v 0.118396 0.367653 0.368397
v -0.000000 0.511884 -0.299252
v 0.000000 0.609117 0.000000
v 0.118396 0.533075 -0.140712
v 0.139184 -0.154557 -0.350369
v 0.139184 -0.311881 0.133831
v 0.139184 0.100000 0.433079
v 0.139184 0.511881 0.133831
v 0.139184 0.354557 -0.350369
v 0.225203 -0.154556 -0.082709
v 0.225202 0.100000 -0.267658
v 0.264741 0.100000 -0.000000
v 0.225203 -0.057323 0.216539
v 0.225203 0.257323 0.216539
v 0.225203 0.354556 -0.082709
vn -0.889733 -0.434139 -0.141061
vn -0.728229 -0.587747 -0.352471
vn -0.728220 -0.682685 -0.060306
vn -0.889734 0.000000 -0.456480
vn -0.728217 0.153603 -0.667912
vn -0.728217 -0.153603 -0.667912
vn -0.889742 -0.268299 0.369289
vn -0.728223 -0.516846 0.450069
vn -0.728218 -0.268294 0.630648
vn -0.889742 0.268299 0.369289
vn -0.728218 0.268294 0.630648
vn -0.728223 0.516846 0.450069
vn -0.889733 0.434139 -0.141061
vn -0.728220 0.682685 -0.060306
vn -0.728229 0.587747 -0.352471
vn -0.271715 0.153604 -0.950040
vn -0.010376 0.000000 -0.999946
vn -0.271715 -0.153604 -0.950040
vn -0.271716 -0.856075 -0.439665
vn -0.010376 -0.951004 -0.309005
vn -0.271713 -0.951013 -0.147469
vn -0.271712 -0.682683 0.678319
vn -0.010377 -0.587744 0.808980
vn -0.271711 -0.434133 0.858896
vn -0.271711 0.434133 0.858896
vn -0.010377 0.587744 0.808980
vn -0.271712 0.682683 0.678319
vn -0.271713 0.951013 -0.147469
vn -0.010376 0.951004 -0.309005
vn -0.271716 0.856075 -0.439665
vn 0.010377 -0.587744 -0.808980
vn 0.271711 -0.434133 -0.858896
vn 0.271712 -0.682683 -0.678319
vn 0.010376 -0.951004 0.309005
vn 0.271713 -0.951013 0.147469
vn 0.271716 -0.856075 0.439665
vn 0.010376 0.000000 0.999946
vn 0.271715 -0.153604 0.950040
vn 0.271715 0.153604 0.950040
vn 0.010376 0.951004 0.309005
vn 0.271716 0.856075 0.439665
vn 0.271713 0.951013 0.147469
vn 0.010377 0.587744 -0.808980
vn 0.271712 0.682683 -0.678319
vn 0.271711 0.434133 -0.858896
vn 0.728218 -0.268294 -0.630648
vn 0.889742 -0.268299 -0.369289
vn 0.728223 -0.516846 -0.450069
vn 0.728220 -0.682685 0.060306
vn 0.889733 -0.434139 0.141061
vn 0.728229 -0.587747 0.352471
vn 0.728217 -0.153603 0.667912
vn 0.889734 0.000000 0.456480
vn 0.728217 0.153603 0.667912
vn 0.728229 0.587747 0.352471
vn 0.889733 0.434139 0.141061
vn 0.728220 0.682685 0.060306
vn 0.728223 0.516846 -0.450069
vn 0.889742 0.268299 -0.369289
vn 0.728218 0.268294 -0.630648
vn 0.673106 0.703351 -0.228530
vn 0.505437 0.703358 -0.499822
vn 0.962500 0.000000 -0.271281
vn 0.962499 0.258005 -0.083835
vn 0.505434 0.258012 -0.823387
vn 0.673106 0.000000 -0.739546
vn 0.673109 0.434690 0.598305
vn 0.505421 0.692715 0.514485
vn 0.962502 0.159461 0.219461
vn 0.505421 0.862826 -0.009034
vn 0.673109 -0.434690 0.598305
vn 0.505431 -0.275224 0.817797
vn 0.962502 -0.159461 0.219461
vn 0.505431 0.275224 0.817797
vn 0.673106 -0.703351 -0.228530
vn 0.505421 -0.862826 -0.009034
vn 0.962499 -0.258005 -0.083835
vn 0.505421 -0.692715 0.514485
vn 0.505434 -0.258012 -0.823387
vn 0.505437 -0.703358 -0.499822
vn -0.234114 0.434687 -0.869619
vn -0.234110 0.692716 -0.682156
vn 0.234114 0.159464 -0.959042
vn 0.234110 0.862829 -0.448017
vn -0.234112 0.961382 0.144691
vn -0.234110 0.862829 0.448017
vn 0.234112 0.961382 -0.144691
vn 0.234110 0.692716 0.682156
vn -0.234114 0.159464 0.959042
vn -0.234114 -0.159464 0.959042
vn 0.234114 0.434687 0.869619
vn 0.234114 -0.434687 0.869619
vn -0.234110 -0.862829 0.448017
vn -0.234112 -0.961382 0.144691
vn 0.234110 -0.692716 0.682156
vn 0.234112 -0.961382 -0.144691
vn -0.234110 -0.692716 -0.682156
vn -0.234114 -0.434687 -0.869619
vn 0.234110 -0.862829 -0.448017
vn 0.234114 -0.159464 -0.959042
vn -0.505421 0.862826 0.009034
vn -0.505421 0.692715 -0.514485
vn -0.505434 0.258012 0.823387
vn -0.505437 0.703358 0.499822
vn -0.505437 -0.703358 0.499822
vn -0.505434 -0.258012 0.823387
vn -0.505421 -0.692715 -0.514485
vn -0.505421 -0.862826 0.009034
vn -0.505431 0.275224 -0.817797
vn -0.505431 -0.275224 -0.817797
vn -0.962502 0.159461 -0.219461
vn -0.962499 0.258005 0.083835
vn -0.673109 0.434690 -0.598305
vn -0.673106 0.703351 0.228530
vn -0.962500 0.000000 0.271281
vn -0.673106 0.000000 0.739546
vn -0.962499 -0.258005 0.083835
vn -0.673106 -0.703351 0.228530
vn -0.962502 -0.159461 -0.219461
vn -0.673109 -0.434690 -0.598305
vn -0.850660 -0.309006 -0.425315
vn -0.525732 -0.809016 -0.262866
vn -0.447226 -0.525721 -0.723606
vn -0.850656 -0.499993 0.162453
vn -0.447223 -0.850651 0.276378
vn -1.000000 0.000000 0.000000
vn -0.525721 0.000000 -0.850657
vn -0.850660 0.309006 -0.425315
vn -0.447226 0.525721 -0.723606
vn -0.525732 -0.500004 0.688188
vn -0.850657 0.000000 0.525721
vn -0.447201 0.000000 0.894433
vn -0.525732 0.500004 0.688188
vn -0.850656 0.499993 0.162453
vn -0.447223 0.850651 0.276378
vn -0.525732 0.809016 -0.262866
vn -0.000000 -0.309004 -0.951061
vn -0.000000 0.309004 -0.951061
vn 0.447201 0.000000 -0.894433
vn 0.000000 -1.000000 -0.000000
vn -0.000000 -0.809030 -0.587767
vn 0.447223 -0.850651 -0.276378
vn 0.000000 -0.309004 0.951061
vn 0.000000 -0.809030 0.587767
vn 0.447226 -0.525721 0.723606
vn 0.000000 0.809030 0.587767
vn 0.000000 0.309004 0.951061
vn 0.447226 0.525721 0.723606
vn -0.000000 0.809030 -0.587767
vn 0.000000 1.000000 0.000000
vn 0.447223 0.850651 -0.276378
vn 0.525732 -0.500004 -0.688188
vn 0.525732 -0.809016 0.262866
vn 0.525721 0.000000 0.850657
vn 0.525732 0.809016 0.262866
vn 0.525732 0.500004 -0.688188
vn 0.850656 -0.499993 -0.162453
vn 0.850657 0.000000 -0.525721
vn 1.000000 0.000000 -0.000000
vn 0.850660 -0.309006 0.425315
vn 0.850660 0.309006 0.425315
vn 0.850656 0.499993 -0.162453
vt 0.000000 0.000000
f 1/1/1 2/1/2 3/1/3
f 4/1/4 5/1/5 6/1/6
f 7/1/7 8/1/8 9/1/9
f 10/1/10 11/1/11 12/1/12
f 13/1/13 14/1/14 15/1/15
f 16/1/16 17/1/17 18/1/18
f 19/1/19 20/1/20 21/1/21
f 22/1/22 23/1/23 24/1/24
f 25/1/25 26/1/26 27/1/27
f 28/1/28 29/1/29 30/1/30
f 31/1/31 32/1/32 33/1/33
f 34/1/34 35/1/35 36/1/36
f 37/1/37 38/1/38 39/1/39
f 40/1/40 41/1/41 42/1/42
f 43/1/43 44/1/44 45/1/45
f 46/1/46 47/1/47 48/1/48
f 49/1/49 50/1/50 51/1/51
f 52/1/52 53/1/53 54/1/54
f 55/1/55 56/1/56 57/1/57
f 58/1/58 59/1/59 60/1/60
f 61/1/61 58/1/58 62/1/62
f 63/1/63 59/1/59 64/1/64
f 65/1/65 60/1/60 66/1/66
f 67/1/67 55/1/55 68/1/68
f 64/1/64 56/1/56 69/1/69
f 70/1/70 57/1/57 61/1/61
f 71/1/71 52/1/52 72/1/72
f 69/1/69 53/1/53 73/1/73
f 74/1/74 54/1/54 67/1/67
f 75/1/75 49/1/49 76/1/76
f 73/1/73 50/1/50 77/1/77
f 78/1/78 51/1/51 71/1/71
f 66/1/66 46/1/46 79/1/79
f 77/1/77 47/1/47 63/1/63
f 80/1/80 48/1/48 75/1/75
f 81/1/81 82/1/82 43/1/43
f 65/1/65 83/1/83 45/1/45
f 84/1/84 62/1/62 44/1/44
f 85/1/85 86/1/86 40/1/40
f 70/1/70 87/1/87 42/1/42
f 88/1/88 68/1/68 41/1/41
f 89/1/89 90/1/90 37/1/37
f 74/1/74 91/1/91 39/1/39
f 92/1/92 72/1/72 38/1/38
f 93/1/93 94/1/94 34/1/34
f 78/1/78 95/1/95 36/1/36
f 96/1/96 76/1/76 35/1/35
f 97/1/97 98/1/98 31/1/31
f 80/1/80 99/1/99 33/1/33
f 100/1/100 79/1/79 32/1/32
f 85/1/85 28/1/28 101/1/101
f 84/1/84 29/1/29 87/1/87
f 102/1/102 30/1/30 82/1/82
f 89/1/89 25/1/25 103/1/103
f 88/1/88 26/1/26 91/1/91
f 104/1/104 27/1/27 86/1/86
f 93/1/93 22/1/22 105/1/105
f 92/1/92 23/1/23 95/1/95
f 106/1/106 24/1/24 90/1/90
f 97/1/97 19/1/19 107/1/107
f 96/1/96 20/1/20 99/1/99
f 108/1/108 21/1/21 94/1/94
f 81/1/81 16/1/16 109/1/109
f 100/1/100 17/1/17 83/1/83
f 110/1/110 18/1/18 98/1/98
f 111/1/111 112/1/112 13/1/13
f 102/1/102 113/1/113 15/1/15
f 114/1/114 101/1/101 14/1/14
f 112/1/112 115/1/115 10/1/10
f 104/1/104 114/1/114 12/1/12
f 116/1/116 103/1/103 11/1/11
f 115/1/115 117/1/117 7/1/7
f 106/1/106 116/1/116 9/1/9
f 118/1/118 105/1/105 8/1/8
f 111/1/111 4/1/4 119/1/119
f 109/1/109 5/1/5 113/1/113
f 120/1/120 6/1/6 110/1/110
f 117/1/117 119/1/119 1/1/1
f 108/1/108 118/1/118 3/1/3
f 120/1/120 107/1/107 2/1/2
f 121/1/121 120/1/120 2/1/2
f 122/1/122 2/1/2 107/1/107
f 123/1/123 107/1/107 120/1/120
f 122/1/122 108/1/108 3/1/3
f 124/1/124 3/1/3 118/1/118
f 125/1/125 118/1/118 108/1/108
f 124/1/124 117/1/117 1/1/1
f 121/1/121 1/1/1 119/1/119
f 126/1/126 119/1/119 117/1/117
f 121/1/121 6/1/6 120/1/120
f 127/1/127 110/1/110 6/1/6
f 123/1/123 120/1/120 110/1/110
f 127/1/127 5/1/5 109/1/109
f 128/1/128 113/1/113 5/1/5
f 129/1/129 109/1/109 113/1/113
f 128/1/128 4/1/4 111/1/111
f 121/1/121 119/1/119 4/1/4
f 126/1/126 111/1/111 119/1/119
f 124/1/124 118/1/118 8/1/8
f 130/1/130 8/1/8 105/1/105
f 125/1/125 105/1/105 118/1/118
f 130/1/130 106/1/106 9/1/9
f 131/1/131 9/1/9 116/1/116
f 132/1/132 116/1/116 106/1/106
f 131/1/131 115/1/115 7/1/7
f 124/1/124 7/1/7 117/1/117
f 126/1/126 117/1/117 115/1/115
f 131/1/131 116/1/116 11/1/11
f 133/1/133 11/1/11 103/1/103
f 132/1/132 103/1/103 116/1/116
f 133/1/133 104/1/104 12/1/12
f 134/1/134 12/1/12 114/1/114
f 135/1/135 114/1/114 104/1/104
f 134/1/134 112/1/112 10/1/10
f 131/1/131 10/1/10 115/1/115
f 126/1/126 115/1/115 112/1/112
f 134/1/134 114/1/114 14/1/14
f 136/1/136 14/1/14 101/1/101
f 135/1/135 101/1/101 114/1/114
f 136/1/136 102/1/102 15/1/15
f 128/1/128 15/1/15 113/1/113
f 129/1/129 113/1/113 102/1/102
f 128/1/128 111/1/111 13/1/13
f 134/1/134 13/1/13 112/1/112
f 126/1/126 112/1/112 111/1/111
f 127/1/127 18/1/18 110/1/110
f 137/1/137 98/1/98 18/1/18
f 123/1/123 110/1/110 98/1/98
f 137/1/137 17/1/17 100/1/100
f 138/1/138 83/1/83 17/1/17
f 139/1/139 100/1/100 83/1/83
f 138/1/138 16/1/16 81/1/81
f 127/1/127 109/1/109 16/1/16
f 129/1/129 81/1/81 109/1/109
f 122/1/122 21/1/21 108/1/108
f 140/1/140 94/1/94 21/1/21
f 125/1/125 108/1/108 94/1/94
f 140/1/140 20/1/20 96/1/96
f 141/1/141 99/1/99 20/1/20
f 142/1/142 96/1/96 99/1/99
f 141/1/141 19/1/19 97/1/97
f 122/1/122 107/1/107 19/1/19
f 123/1/123 97/1/97 107/1/107
f 130/1/130 24/1/24 106/1/106
f 143/1/143 90/1/90 24/1/24
f 132/1/132 106/1/106 90/1/90
f 143/1/143 23/1/23 92/1/92
f 144/1/144 95/1/95 23/1/23
f 145/1/145 92/1/92 95/1/95
f 144/1/144 22/1/22 93/1/93
f 130/1/130 105/1/105 22/1/22
f 125/1/125 93/1/93 105/1/105
f 133/1/133 27/1/27 104/1/104
f 146/1/146 86/1/86 27/1/27
f 135/1/135 104/1/104 86/1/86
f 146/1/146 26/1/26 88/1/88
f 147/1/147 91/1/91 26/1/26
f 148/1/148 88/1/88 91/1/91
f 147/1/147 25/1/25 89/1/89
f 133/1/133 103/1/103 25/1/25
f 132/1/132 89/1/89 103/1/103
f 136/1/136 30/1/30 102/1/102
f 149/1/149 82/1/82 30/1/30
f 129/1/129 102/1/102 82/1/82
f 149/1/149 29/1/29 84/1/84
f 150/1/150 87/1/87 29/1/29
f 151/1/151 84/1/84 87/1/87
f 150/1/150 28/1/28 85/1/85
f 136/1/136 101/1/101 28/1/28
f 135/1/135 85/1/85 101/1/101
f 137/1/137 100/1/100 32/1/32
f 152/1/152 32/1/32 79/1/79
f 139/1/139 79/1/79 100/1/100
f 152/1/152 80/1/80 33/1/33
f 141/1/141 33/1/33 99/1/99
f 142/1/142 99/1/99 80/1/80
f 141/1/141 97/1/97 31/1/31
f 137/1/137 31/1/31 98/1/98
f 123/1/123 98/1/98 97/1/97
f 140/1/140 96/1/96 35/1/35
f 153/1/153 35/1/35 76/1/76
f 142/1/142 76/1/76 96/1/96
f 153/1/153 78/1/78 36/1/36
f 144/1/144 36/1/36 95/1/95
f 145/1/145 95/1/95 78/1/78
f 144/1/144 93/1/93 34/1/34
f 140/1/140 34/1/34 94/1/94
f 125/1/125 94/1/94 93/1/93
f 143/1/143 92/1/92 38/1/38
f 154/1/154 38/1/38 72/1/72
f 145/1/145 72/1/72 92/1/92
f 154/1/154 74/1/74 39/1/39
f 147/1/147 39/1/39 91/1/91
f 148/1/148 91/1/91 74/1/74
f 147/1/147 89/1/89 37/1/37
f 143/1/143 37/1/37 90/1/90
f 132/1/132 90/1/90 89/1/89
f 146/1/146 88/1/88 41/1/41
f 155/1/155 41/1/41 68/1/68
f 148/1/148 68/1/68 88/1/88
f 155/1/155 70/1/70 42/1/42
f 150/1/150 42/1/42 87/1/87
f 151/1/151 87/1/87 70/1/70
f 150/1/150 85/1/85 40/1/40
f 146/1/146 40/1/40 86/1/86
f 135/1/135 86/1/86 85/1/85
f 149/1/149 84/1/84 44/1/44
f 156/1/156 44/1/44 62/1/62
f 151/1/151 62/1/62 84/1/84
f 156/1/156 65/1/65 45/1/45
f 138/1/138 45/1/45 83/1/83
f 139/1/139 83/1/83 65/1/65
f 138/1/138 81/1/81 43/1/43
f 149/1/149 43/1/43 82/1/82
f 129/1/129 82/1/82 81/1/81
f 152/1/152 48/1/48 80/1/80
f 157/1/157 75/1/75 48/1/48
f 142/1/142 80/1/80 75/1/75
f 157/1/157 47/1/47 77/1/77
f 158/1/158 63/1/63 47/1/47
f 159/1/159 77/1/77 63/1/63
f 158/1/158 46/1/46 66/1/66
f 152/1/152 79/1/79 46/1/46
f 139/1/139 66/1/66 79/1/79
f 153/1/153 51/1/51 78/1/78
f 160/1/160 71/1/71 51/1/51
f 145/1/145 78/1/78 71/1/71
f 160/1/160 50/1/50 73/1/73
f 157/1/157 77/1/77 50/1/50
f 159/1/159 73/1/73 77/1/77
f 157/1/157 49/1/49 75/1/75
f 153/1/153 76/1/76 49/1/49
f 142/1/142 75/1/75 76/1/76
f 154/1/154 54/1/54 74/1/74
f 161/1/161 67/1/67 54/1/54
f 148/1/148 74/1/74 67/1/67
f 161/1/161 53/1/53 69/1/69
f 160/1/160 73/1/73 53/1/53
f 159/1/159 69/1/69 73/1/73
f 160/1/160 52/1/52 71/1/71
f 154/1/154 72/1/72 52/1/52
f 145/1/145 71/1/71 72/1/72
f 155/1/155 57/1/57 70/1/70
f 162/1/162 61/1/61 57/1/57
f 151/1/151 70/1/70 61/1/61
f 162/1/162 56/1/56 64/1/64
f 161/1/161 69/1/69 56/1/56
f 159/1/159 64/1/64 69/1/69
f 161/1/161 55/1/55 67/1/67
f 155/1/155 68/1/68 55/1/55
f 148/1/148 67/1/67 68/1/68
f 156/1/156 60/1/60 65/1/65
f 158/1/158 66/1/66 60/1/60
f 139/1/139 65/1/65 66/1/66
f 158/1/158 59/1/59 63/1/63
f 162/1/162 64/1/64 59/1/59
f 159/1/159 63/1/63 64/1/64
f 162/1/162 58/1/58 61/1/61
f 156/1/156 62/1/62 58/1/58
f 151/1/151 61/1/61 62/1/62
f 162/1/162 59/1/59 58/1/58
f 158/1/158 60/1/60 59/1/59
f 156/1/156 58/1/58 60/1/60
f 161/1/161 56/1/56 55/1/55
f 162/1/162 57/1/57 56/1/56
f 155/1/155 55/1/55 57/1/57
f 160/1/160 53/1/53 52/1/52
f 161/1/161 54/1/54 53/1/53
f 154/1/154 52/1/52 54/1/54
f 157/1/157 50/1/50 49/1/49
f 160/1/160 51/1/51 50/1/50
f 153/1/153 49/1/49 51/1/51
f 158/1/158 47/1/47 46/1/46
f 157/1/157 48/1/48 47/1/47
f 152/1/152 46/1/46 48/1/48
f 138/1/138 43/1/43 45/1/45
f 156/1/156 45/1/45 44/1/44
f 149/1/149 44/1/44 43/1/43
f 150/1/150 40/1/40 42/1/42
f 155/1/155 42/1/42 41/1/41
f 146/1/146 41/1/41 40/1/40
f 147/1/147 37/1/37 39/1/39
f 154/1/154 39/1/39 38/1/38
f 143/1/143 38/1/38 37/1/37
f 144/1/144 34/1/34 36/1/36
f 153/1/153 36/1/36 35/1/35
f 140/1/140 35/1/35 34/1/34
f 141/1/141 31/1/31 33/1/33
f 152/1/152 33/1/33 32/1/32
f 137/1/137 32/1/32 31/1/31
f 150/1/150 29/1/29 28/1/28
f 149/1/149 30/1/30 29/1/29
f 136/1/136 28/1/28 30/1/30
f 147/1/147 26/1/26 25/1/25
f 146/1/146 27/1/27 26/1/26
f 133/1/133 25/1/25 27/1/27
f 144/1/144 23/1/23 22/1/22
f 143/1/143 24/1/24 23/1/23
f 130/1/130 22/1/22 24/1/24
f 141/1/141 20/1/20 19/1/19
f 140/1/140 21/1/21 20/1/20
f 122/1/122 19/1/19 21/1/21
f 138/1/138 17/1/17 16/1/16
f 137/1/137 18/1/18 17/1/17
f 127/1/127 16/1/16 18/1/18
f 128/1/128 13/1/13 15/1/15
f 136/1/136 15/1/15 14/1/14
f 134/1/134 14/1/14 13/1/13
f 134/1/134 10/1/10 12/1/12
f 133/1/133 12/1/12 11/1/11
f 131/1/131 11/1/11 10/1/10
f 131/1/131 7/1/7 9/1/9
f 130/1/130 9/1/9 8/1/8
f 124/1/124 8/1/8 7/1/7
f 128/1/128 5/1/5 4/1/4
f 127/1/127 6/1/6 5/1/5
f 121/1/121 4/1/4 6/1/6
f 124/1/124 1/1/1 3/1/3
f 122/1/122 3/1/3 2/1/2
f 121/1/121 2/1/2 1/1/1
